<svg width="94" height="27" viewBox="0 0 94 27" fill="none" xmlns="http://www.w3.org/2000/svg">
<path d="M0.000353456 26.4176V1.11998C0.000353456 0.822945 0.121901 0.538073 0.338259 0.328036C0.554616 0.117998 0.848061 0 1.15404 0H10.0951C13.1197 0 15.651 0.601991 17.6892 1.80597C19.6712 2.96119 21.2599 4.65631 22.2578 6.6807C23.2937 8.79825 23.8157 11.1182 23.7835 13.4622C23.7835 16.1987 23.223 18.5796 22.102 20.6049C21.0215 22.5906 19.369 24.228 17.346 25.3172C15.2982 26.4372 12.8783 26.9972 10.0864 26.9972H0.577195C0.499714 26.9972 0.423016 26.9821 0.351682 26.9528C0.280347 26.9234 0.215838 26.8804 0.162 26.8263C0.108163 26.7722 0.0661017 26.7082 0.0383293 26.6379C0.0105569 26.5677 -0.0023584 26.4928 0.000353456 26.4176ZM18.3555 13.451C18.3892 11.8603 18.0551 10.2826 17.3777 8.83387C16.7695 7.55186 15.7905 6.46914 14.5598 5.71751C13.2124 4.94024 11.6647 4.55175 10.098 4.59753H5.96778C5.81479 4.59753 5.66807 4.65653 5.55989 4.76155C5.45171 4.86657 5.39094 5.009 5.39094 5.15752V21.8201C5.39094 21.9686 5.45171 22.111 5.55989 22.216C5.66807 22.3211 5.81479 22.3801 5.96778 22.3801H10.0951C11.8948 22.3801 13.4014 21.9871 14.6146 21.2013C15.832 20.4121 16.7957 19.3059 17.395 18.0093C18.0497 16.5752 18.3736 15.0194 18.3439 13.451H18.3555Z" fill="white"/>
<path d="M44.5874 26.4907V10.531C44.5947 10.4195 44.6248 10.3107 44.6759 10.2107C44.727 10.1107 44.7982 10.0216 44.8852 9.94858C44.9722 9.87559 45.0733 9.82016 45.1826 9.78555C45.2919 9.75093 45.4073 9.73782 45.5219 9.74697L48.8618 10.027C48.9764 10.0182 49.0917 10.0317 49.2008 10.0667C49.31 10.1016 49.4109 10.1574 49.4976 10.2306C49.5844 10.3039 49.6552 10.3932 49.706 10.4933C49.7567 10.5934 49.7865 10.7024 49.7934 10.8138V26.5103C49.7831 26.649 49.7166 26.7781 49.6085 26.8694C49.5004 26.9607 49.3595 27.0068 49.2166 26.9975H45.1642C45.0919 27.0017 45.0195 26.9918 44.9512 26.9684C44.8828 26.9451 44.82 26.9088 44.7663 26.8616C44.7126 26.8144 44.6691 26.7573 44.6384 26.6936C44.6077 26.63 44.5903 26.561 44.5874 26.4907Z" fill="white"/>
<path d="M83.5096 26.9774C82.0135 26.9974 80.5289 26.7221 79.1458 26.1682C77.8902 25.6603 76.7562 24.9063 75.8145 23.9535C74.9039 23.0252 74.1888 21.9333 73.709 20.7391C73.2144 19.5058 72.9639 18.193 72.9707 16.8696C72.9536 15.0828 73.3947 13.3201 74.2542 11.74C75.096 10.1889 76.3573 8.88984 77.9027 7.9825C79.4717 7.04918 81.3532 6.58252 83.5471 6.58252C85.741 6.58252 87.6042 7.04918 89.1367 7.9825C90.6566 8.88447 91.8996 10.1656 92.7362 11.6924C93.5809 13.2318 94.0152 14.9519 93.9994 16.696C93.9994 17.0236 93.9995 17.3288 93.962 17.6172C93.9461 17.8153 93.8544 18.0005 93.705 18.1362C93.5555 18.272 93.3591 18.3485 93.1544 18.3507H79.0621C78.978 18.3497 78.8946 18.3665 78.8178 18.4001C78.741 18.4337 78.6728 18.4831 78.6178 18.545C78.5628 18.607 78.5225 18.6798 78.4996 18.7584C78.4767 18.8371 78.4718 18.9197 78.4853 19.0003C78.5977 19.7158 78.8651 20.4001 79.2698 21.0079C79.7484 21.7177 80.4069 22.2962 81.182 22.6879C81.942 23.0802 82.7902 23.2841 83.6509 23.2815C84.6773 23.2864 85.6872 23.0316 86.5813 22.5423C87.2377 22.2017 87.7876 21.6959 88.1734 21.0779C88.2642 20.9294 88.4033 20.8143 88.5688 20.751C88.7343 20.6876 88.9169 20.6795 89.0877 20.7279L91.395 21.3747C91.5741 21.4254 91.7378 21.5175 91.8721 21.643C92.0065 21.7686 92.1075 21.9239 92.1665 22.0957C92.2254 22.2675 92.2407 22.4506 92.2108 22.6293C92.1809 22.808 92.1068 22.977 91.9949 23.1219C91.6358 23.6102 91.2228 24.059 90.7634 24.4603C89.8364 25.265 88.7595 25.8903 87.5907 26.3026C86.2827 26.762 84.9005 26.9905 83.5096 26.9774ZM78.9323 15.1616H88.0868C88.1733 15.1633 88.2591 15.1461 88.3379 15.1112C88.4166 15.0764 88.4863 15.0247 88.5416 14.9602C88.597 14.8957 88.6368 14.8199 88.6579 14.7384C88.679 14.6569 88.681 14.5719 88.6637 14.4896C88.5338 13.8132 88.2767 13.1659 87.9051 12.58C87.4444 11.8658 86.8004 11.2801 86.0362 10.8805C85.2496 10.4665 84.3667 10.2553 83.4721 10.2673C82.6025 10.2551 81.7446 10.4627 80.9825 10.8697C80.2205 11.2766 79.5806 11.8689 79.1256 12.5884C78.7541 13.1743 78.4969 13.8216 78.3671 14.498C78.3514 14.5788 78.3542 14.6619 78.3754 14.7415C78.3965 14.8211 78.4354 14.8952 78.4894 14.9585C78.5434 15.0218 78.611 15.0729 78.6876 15.108C78.7641 15.1431 78.8477 15.1614 78.9323 15.1616Z" fill="white"/>
<path d="M45.1238 4.77407C45.4727 2.31291 45.4727 2.31291 47.933 2.6405C50.3932 2.9681 50.3932 2.9681 50.0442 5.44046C49.6952 7.91282 49.6981 7.90162 47.2379 7.57403C44.7776 7.24643 44.7776 7.24643 45.1238 4.77407Z" fill="white"/>
<path d="M40.3794 11.8214C40.3794 12.0034 40.163 12.1433 39.9063 12.1322C39.1622 12.1014 38.4239 12.0677 37.7143 12.0677C36.3761 12.0677 35.1388 12.1825 34.1177 12.6473C33.8762 12.7569 33.6463 12.8892 33.4313 13.0421C33.1227 13.2577 33.0823 13.6021 33.0823 13.9633V26.4147C33.0734 26.5717 33.0006 26.7189 32.88 26.8239C32.7594 26.9289 32.6009 26.9831 32.4391 26.9747H28.5743C28.4124 26.9824 28.254 26.928 28.1331 26.8232C28.0122 26.7184 27.9386 26.5717 27.9282 26.4147V7.70542C27.9379 7.54816 28.0113 7.40101 28.1323 7.29609C28.2534 7.19117 28.4123 7.13701 28.5743 7.14542L32.4593 7.07263C32.6211 7.06423 32.7796 7.11848 32.9002 7.22347C33.0208 7.32846 33.0936 7.47561 33.1025 7.63262L33.0794 9.44139C33.1227 9.39939 33.1573 9.37139 33.1948 9.33219C33.7731 8.70497 34.4702 8.19164 35.2483 7.82021C35.4185 7.75301 35.5945 7.68862 35.7675 7.62982L35.8281 7.60742C36.4309 7.40665 37.0504 7.25676 37.6797 7.15942H37.6942L37.8672 7.13702H37.9393C38.54 7.09724 39.1431 7.10755 39.7419 7.16782C39.9132 7.18035 40.0734 7.25446 40.1913 7.37564C40.3092 7.49682 40.3762 7.65636 40.3794 7.82301V11.8214Z" fill="white"/>
<path d="M58.6249 26.6358L53.8573 14.6492C53.8215 14.5681 53.8059 14.4799 53.8118 14.3919C53.8177 14.3038 53.845 14.2183 53.8913 14.1425C53.9377 14.0666 54.0019 14.0024 54.0787 13.9552C54.1555 13.908 54.2427 13.8791 54.3332 13.8708L58.2846 14.3216C58.4228 14.3488 58.5522 14.4085 58.6612 14.4953C58.7703 14.5822 58.8559 14.6936 58.9104 14.82L61.0275 20.9379C61.0654 21.0499 61.1388 21.1474 61.2372 21.2166C61.3356 21.2858 61.454 21.323 61.5755 21.323C61.6969 21.323 61.8153 21.2858 61.9137 21.2166C62.0121 21.1474 62.0855 21.0499 62.1235 20.9379L66.2133 9.42163C66.2544 9.31166 66.3286 9.21625 66.4264 9.14783C66.5241 9.07941 66.6408 9.04115 66.7613 9.03804L70.6924 8.57325C70.7857 8.57295 70.8777 8.59463 70.9605 8.63643C71.0433 8.67823 71.1144 8.73891 71.1677 8.81324C71.221 8.88758 71.255 8.97336 71.2666 9.06323C71.2783 9.1531 71.2673 9.24438 71.2347 9.32923L64.5779 26.6358C64.5368 26.7425 64.4632 26.8345 64.3668 26.8996C64.2705 26.9646 64.1559 26.9996 64.0386 26.9998H59.1643C59.0469 26.9996 58.9324 26.9646 58.836 26.8996C58.7396 26.8345 58.666 26.7425 58.6249 26.6358Z" fill="white"/>
</svg>
