<svg width="775" height="351" viewBox="0 0 775 351" fill="none" xmlns="http://www.w3.org/2000/svg">
<path fill-rule="evenodd" clip-rule="evenodd" d="M83.8068 2.65315C84.0219 1.01032 85.5297 -0.159685 87.1745 0.0398668L120.868 4.12769C122.513 4.32724 123.672 5.82079 123.457 7.46362L117.583 52.3194C117.368 53.9622 115.86 55.1322 114.215 54.9326L80.5218 50.8448C78.877 50.6453 77.718 49.1517 77.9331 47.5089L83.8068 2.65315ZM203.562 12.3652C204.863 11.3398 206.788 11.5317 207.862 12.7939L261.218 75.5355C262.291 76.7977 262.106 78.6522 260.805 79.6776L224.352 108.4C223.05 109.425 221.125 109.233 220.052 107.971L208.078 93.891L207.612 93.8344L207.612 149.714C207.612 151.371 206.269 152.714 204.612 152.714H195.443L197.223 158.471C197.712 160.054 196.817 161.707 195.224 162.163L133.474 179.848L148.64 221.61C149.206 223.167 148.391 224.858 146.821 225.387L81.2803 247.438C79.7099 247.966 77.9785 247.132 77.4129 245.575L60.0064 197.642C59.4409 196.085 60.2554 194.394 61.8258 193.865L72.3424 190.327L57.6882 142.919C57.1989 141.336 58.0934 139.683 59.6863 139.227L85.2251 131.913L85.2251 71.9912C85.2251 70.3343 86.5683 68.9912 88.2251 68.9912L132.551 68.9912L136.786 36.6514C137.001 35.0085 138.509 33.8385 140.154 34.0381L171.265 37.8126L203.562 12.3652ZM43.5298 159.997C42.3361 158.848 40.4007 158.848 39.207 159.997L15.9665 182.367C14.7728 183.516 14.7728 185.379 15.9665 186.528L32.3496 202.298C33.5433 203.447 35.4787 203.447 36.6724 202.298L59.9129 179.927C61.1066 178.778 61.1066 176.915 59.9129 175.766L43.5298 159.997ZM42.5554 66.2635C44.0036 65.4586 45.8685 65.958 46.7208 67.3789L70.8301 107.574C71.6824 108.995 71.1992 110.799 69.751 111.604L28.7745 134.376C27.3262 135.181 25.4613 134.681 24.6091 133.261L0.499691 93.0655C-0.352553 91.6446 0.130597 89.8403 1.57884 89.0355L42.5554 66.2635Z" fill="#0085FF"/>
<rect x="112.666" y="70.3906" width="491.112" height="185.711" rx="60" fill="#0085FF"/>
<g filter="url(#filter0_d_15_210)">
<path d="M159.904 143.454C159.435 142.79 159.201 142.008 159.201 141.11C159.201 140.211 159.845 139.215 161.134 138.122L175.431 125.817C177.501 123.981 180.373 123.043 184.044 123.004H192.658C194.259 123.004 195.607 123.551 196.701 124.645C197.794 125.739 198.341 127.047 198.341 128.571V201.52C198.341 203.043 197.775 204.352 196.642 205.446C195.509 206.5 194.181 207.028 192.658 207.028H181.759C180.236 207.028 178.927 206.52 177.833 205.504C176.779 204.45 176.251 203.161 176.251 201.637V144.977L169.513 149.899C168.732 150.446 167.833 150.622 166.818 150.426C165.802 150.231 164.982 149.782 164.357 149.079L159.904 143.454ZM231.353 165.016C231.353 157.165 232.427 150.426 234.576 144.801C236.763 139.176 239.849 134.782 243.833 131.618C251.412 125.563 261.294 122.536 273.482 122.536H277.583C289.771 122.536 299.654 125.563 307.232 131.618C315.552 138.258 319.712 149.391 319.712 165.016C319.712 180.719 315.552 191.872 307.232 198.473C299.654 204.489 289.771 207.497 277.583 207.497H273.482C261.294 207.497 251.412 204.489 243.833 198.473C235.513 191.872 231.353 180.719 231.353 165.016ZM275.533 139.118C260.806 139.118 253.443 147.77 253.443 165.075C253.443 182.34 260.806 190.973 275.533 190.973C290.259 190.973 297.623 182.34 297.623 165.075C297.623 147.77 290.259 139.118 275.533 139.118ZM347.861 165.016C347.861 157.165 348.935 150.426 351.083 144.801C353.271 139.176 356.357 134.782 360.341 131.618C367.919 125.563 377.802 122.536 389.99 122.536H394.091C406.279 122.536 416.162 125.563 423.74 131.618C432.06 138.258 436.22 149.391 436.22 165.016C436.22 180.719 432.06 191.872 423.74 198.473C416.162 204.489 406.279 207.497 394.091 207.497H389.99C377.802 207.497 367.919 204.489 360.341 198.473C352.021 191.872 347.861 180.719 347.861 165.016ZM392.041 139.118C377.314 139.118 369.951 147.77 369.951 165.075C369.951 182.34 377.314 190.973 392.041 190.973C406.767 190.973 414.13 182.34 414.13 165.075C414.13 147.77 406.767 139.118 392.041 139.118ZM464.369 165.016C464.369 157.165 465.443 150.426 467.591 144.801C469.779 139.176 472.865 134.782 476.849 131.618C484.427 125.563 494.31 122.536 506.498 122.536H510.599C522.787 122.536 532.669 125.563 540.248 131.618C548.568 138.258 552.728 149.391 552.728 165.016C552.728 180.719 548.568 191.872 540.248 198.473C532.669 204.489 522.787 207.497 510.599 207.497H506.498C494.31 207.497 484.427 204.489 476.849 198.473C468.529 191.872 464.369 180.719 464.369 165.016ZM508.548 139.118C493.822 139.118 486.458 147.77 486.458 165.075C486.458 182.34 493.822 190.973 508.548 190.973C523.275 190.973 530.638 182.34 530.638 165.075C530.638 147.77 523.275 139.118 508.548 139.118Z" fill="white"/>
</g>
<path d="M137.888 324.719V282.302C137.888 281.368 138.195 280.581 138.811 279.943C139.426 279.305 140.178 278.986 141.066 278.986H154.978C155.866 278.986 156.709 279.305 157.507 279.943C158.304 280.581 158.84 281.345 159.113 282.233L169.196 311.423L179.279 282.233C179.553 281.345 180.088 280.581 180.886 279.943C181.683 279.305 182.526 278.986 183.415 278.986H197.326C198.215 278.986 198.955 279.305 199.548 279.943C200.163 280.581 200.471 281.368 200.471 282.302V324.719C200.471 325.653 200.152 326.439 199.514 327.077C198.898 327.692 198.146 328 197.258 328H191.105C190.217 328 189.453 327.692 188.815 327.077C188.2 326.439 187.893 325.653 187.893 324.719V291.325L175.827 324.924C175.508 325.767 174.95 326.496 174.152 327.111C173.355 327.704 172.512 328 171.623 328H166.735C165.847 328 165.004 327.704 164.206 327.111C163.431 326.496 162.873 325.767 162.531 324.924L150.5 291.325V324.719C150.5 325.653 150.181 326.439 149.543 327.077C148.928 327.692 148.176 328 147.287 328H141.135C140.246 328 139.483 327.692 138.845 327.077C138.207 326.439 137.888 325.653 137.888 324.719ZM217.28 324.719V282.165C217.28 281.276 217.599 280.524 218.237 279.909C218.875 279.294 219.639 278.986 220.527 278.986H259.937C260.825 278.986 261.577 279.305 262.192 279.943C262.83 280.581 263.149 281.345 263.149 282.233V285.446C263.149 286.335 262.83 287.098 262.192 287.736C261.577 288.352 260.825 288.659 259.937 288.659H230.166V298.605H255.801C256.689 298.605 257.441 298.924 258.057 299.562C258.695 300.178 259.014 300.93 259.014 301.818V305.031C259.014 305.92 258.695 306.683 258.057 307.321C257.441 307.937 256.689 308.244 255.801 308.244H230.166V318.327H259.868C260.734 318.327 261.475 318.635 262.09 319.25C262.705 319.865 263.013 320.617 263.013 321.506V324.787C263.013 325.676 262.694 326.439 262.056 327.077C261.418 327.692 260.654 328 259.766 328H220.527C219.639 328 218.875 327.692 218.237 327.077C217.599 326.439 217.28 325.653 217.28 324.719ZM272.405 325.129L281.087 292.316C283.411 283.452 290.965 279.009 303.748 278.986H320.838C321.635 278.986 322.308 279.317 322.854 279.978C323.424 280.638 323.709 281.39 323.709 282.233V324.787C323.709 325.676 323.401 326.439 322.786 327.077C322.194 327.692 321.453 328 320.564 328H314.036C313.147 328 312.384 327.692 311.746 327.077C311.131 326.439 310.823 325.676 310.823 324.787V288.659H302.483C300.296 288.659 298.382 289.286 296.741 290.539C295.123 291.77 294.03 293.433 293.46 295.529L285.633 324.787C285.405 325.721 284.892 326.496 284.095 327.111C283.297 327.704 282.454 328 281.565 328H274.627C273.829 328 273.237 327.749 272.85 327.248C272.485 326.747 272.303 326.325 272.303 325.983C272.326 325.642 272.36 325.357 272.405 325.129ZM385.738 322.941C381.09 327.02 374.254 329.06 365.23 329.06C356.23 329.06 349.394 327.02 344.723 322.941C340.051 318.84 337.716 312.357 337.716 303.493C337.716 294.629 340.051 288.158 344.723 284.079C349.394 280 356.23 277.961 365.23 277.961C374.254 277.961 381.09 280 385.738 284.079C390.41 288.158 392.745 294.629 392.745 303.493C392.745 312.357 390.41 318.84 385.738 322.941ZM376.407 291.291C374.106 288.557 370.38 287.189 365.23 287.189C360.104 287.189 356.378 288.557 354.054 291.291C351.752 294.025 350.602 298.104 350.602 303.527C350.602 308.928 351.752 312.995 354.054 315.729C356.378 318.441 360.104 319.797 365.23 319.797C370.38 319.797 374.106 318.441 376.407 315.729C378.709 312.995 379.859 308.928 379.859 303.527C379.859 298.104 378.709 294.025 376.407 291.291ZM404.701 293.684V282.233C404.701 281.345 405.02 280.581 405.658 279.943C406.319 279.305 407.094 278.986 407.982 278.986H414.374C415.24 278.986 415.992 279.305 416.63 279.943C417.268 280.581 417.587 281.345 417.587 282.233V293.684C417.587 299.198 420.333 301.955 425.824 301.955H439.052V282.233C439.052 281.345 439.371 280.581 440.009 279.943C440.647 279.305 441.41 278.986 442.299 278.986H448.656C449.59 278.986 450.365 279.305 450.98 279.943C451.618 280.581 451.938 281.345 451.938 282.233V324.787C451.938 325.676 451.607 326.439 450.946 327.077C450.308 327.692 449.545 328 448.656 328H442.299C441.41 328 440.647 327.704 440.009 327.111C439.371 326.496 439.052 325.744 439.052 324.855V311.628H425.824C419.353 311.628 414.215 310.147 410.409 307.185C406.604 304.222 404.701 299.722 404.701 293.684ZM468.747 324.719V282.165C468.747 281.276 469.066 280.524 469.704 279.909C470.342 279.294 471.105 278.986 471.994 278.986H511.403C512.292 278.986 513.044 279.305 513.659 279.943C514.297 280.581 514.616 281.345 514.616 282.233V285.446C514.616 286.335 514.297 287.098 513.659 287.736C513.044 288.352 512.292 288.659 511.403 288.659H481.633V298.605H507.268C508.156 298.605 508.908 298.924 509.523 299.562C510.161 300.178 510.48 300.93 510.48 301.818V305.031C510.48 305.92 510.161 306.683 509.523 307.321C508.908 307.937 508.156 308.244 507.268 308.244H481.633V318.327H511.335C512.201 318.327 512.941 318.635 513.557 319.25C514.172 319.865 514.479 320.617 514.479 321.506V324.787C514.479 325.676 514.16 326.439 513.522 327.077C512.884 327.692 512.121 328 511.232 328H471.994C471.105 328 470.342 327.692 469.704 327.077C469.066 326.439 468.747 325.653 468.747 324.719ZM527.905 324.787V282.233C527.905 281.299 528.213 280.524 528.828 279.909C529.443 279.294 530.218 278.986 531.152 278.986H537.168C538.057 278.986 538.809 279.294 539.424 279.909C540.062 280.524 540.381 281.276 540.381 282.165V316.379L559.829 282.233C560.353 281.345 561.071 280.581 561.982 279.943C562.894 279.305 563.737 278.986 564.512 278.986H574.595C575.483 278.986 576.235 279.305 576.851 279.943C577.466 280.581 577.773 281.345 577.773 282.233V324.787C577.773 325.676 577.454 326.439 576.816 327.077C576.178 327.692 575.415 328 574.526 328H568.511C567.622 328 566.859 327.692 566.221 327.077C565.605 326.439 565.298 325.676 565.298 324.787V293.068L547.456 324.787C546.932 325.676 546.191 326.439 545.234 327.077C544.277 327.692 543.354 328 542.466 328H531.152C530.264 328 529.5 327.692 528.862 327.077C528.224 326.439 527.905 325.676 527.905 324.787ZM541.372 265.007C541.372 263.845 541.999 263.264 543.252 263.264H546.055C547.171 263.264 547.957 263.845 548.413 265.007C549.074 266.625 550.544 267.434 552.822 267.434C555.124 267.434 556.593 266.625 557.231 265.007C557.71 263.845 558.507 263.264 559.624 263.264H562.427C563.68 263.264 564.307 263.845 564.307 265.007C564.307 268.129 563.258 270.601 561.162 272.424C559.066 274.247 556.286 275.158 552.822 275.158C549.382 275.158 546.613 274.247 544.517 272.424C542.42 270.601 541.372 268.129 541.372 265.007Z" fill="black"/>
<path d="M159.113 282.233L158.158 282.527L158.163 282.544L158.168 282.56L159.113 282.233ZM169.196 311.423L168.251 311.749L169.196 314.486L170.141 311.749L169.196 311.423ZM179.279 282.233L180.224 282.56L180.23 282.544L180.235 282.527L179.279 282.233ZM199.548 279.943L198.815 280.624L198.821 280.631L198.828 280.637L199.548 279.943ZM199.514 327.077L198.807 326.37L199.514 327.077ZM188.815 327.077L188.096 327.771L188.108 327.784L188.121 327.797L188.815 327.077ZM187.893 291.325H188.893L186.951 290.987L187.893 291.325ZM175.827 324.924L176.762 325.278L176.765 325.27L176.768 325.262L175.827 324.924ZM174.152 327.111L174.749 327.914L174.756 327.909L174.763 327.903L174.152 327.111ZM164.206 327.111L163.584 327.894L163.597 327.904L163.61 327.914L164.206 327.111ZM162.531 324.924L161.59 325.261L161.597 325.28L161.605 325.3L162.531 324.924ZM150.5 291.325L151.441 290.988L149.5 291.325H150.5ZM149.543 327.077L148.836 326.37L149.543 327.077ZM138.845 327.077L138.138 327.784L138.144 327.791L138.151 327.797L138.845 327.077ZM138.888 324.719V282.302H136.888V324.719H138.888ZM138.888 282.302C138.888 281.611 139.105 281.078 139.53 280.637L138.091 279.249C137.285 280.084 136.888 281.124 136.888 282.302H138.888ZM139.53 280.637C139.957 280.196 140.448 279.986 141.066 279.986V277.986C139.907 277.986 138.895 278.415 138.091 279.249L139.53 280.637ZM141.066 279.986H154.978V277.986H141.066V279.986ZM154.978 279.986C155.606 279.986 156.234 280.206 156.882 280.724L158.132 279.162C157.184 278.405 156.127 277.986 154.978 277.986V279.986ZM156.882 280.724C157.539 281.25 157.949 281.849 158.158 282.527L160.069 281.939C159.731 280.84 159.07 279.913 158.132 279.162L156.882 280.724ZM158.168 282.56L168.251 311.749L170.141 311.096L160.058 281.907L158.168 282.56ZM170.141 311.749L180.224 282.56L178.334 281.907L168.251 311.096L170.141 311.749ZM180.235 282.527C180.444 281.849 180.854 281.25 181.51 280.724L180.261 279.162C179.323 279.913 178.662 280.84 178.324 281.939L180.235 282.527ZM181.51 280.724C182.158 280.206 182.787 279.986 183.415 279.986V277.986C182.266 277.986 181.208 278.405 180.261 279.162L181.51 280.724ZM183.415 279.986H197.326V277.986H183.415V279.986ZM197.326 279.986C197.943 279.986 198.416 280.194 198.815 280.624L200.281 279.263C199.495 278.416 198.486 277.986 197.326 277.986V279.986ZM198.828 280.637C199.253 281.078 199.471 281.611 199.471 282.302H201.471C201.471 281.124 201.073 280.084 200.268 279.249L198.828 280.637ZM199.471 282.302V324.719H201.471V282.302H199.471ZM199.471 324.719C199.471 325.398 199.25 325.927 198.807 326.37L200.221 327.784C201.054 326.951 201.471 325.908 201.471 324.719H199.471ZM198.807 326.37C198.383 326.793 197.888 327 197.258 327V329C198.405 329 199.414 328.591 200.221 327.784L198.807 326.37ZM197.258 327H191.105V329H197.258V327ZM191.105 327C190.475 327 189.961 326.792 189.51 326.357L188.121 327.797C188.946 328.592 189.959 329 191.105 329V327ZM189.535 326.383C189.11 325.942 188.893 325.41 188.893 324.719H186.893C186.893 325.896 187.29 326.936 188.096 327.771L189.535 326.383ZM188.893 324.719V291.325H186.893V324.719H188.893ZM186.951 290.987L174.886 324.586L176.768 325.262L188.834 291.663L186.951 290.987ZM174.892 324.57C174.646 325.22 174.21 325.804 173.542 326.32L174.763 327.903C175.69 327.188 176.37 326.314 176.762 325.278L174.892 324.57ZM173.556 326.309C172.91 326.789 172.272 327 171.623 327V329C172.752 329 173.8 328.619 174.749 327.914L173.556 326.309ZM171.623 327H166.735V329H171.623V327ZM166.735 327C166.087 327 165.449 326.789 164.802 326.309L163.61 327.914C164.558 328.619 165.607 329 166.735 329V327ZM164.828 326.328C164.176 325.811 163.729 325.218 163.458 324.548L161.605 325.3C162.017 326.316 162.687 327.182 163.584 327.894L164.828 326.328ZM163.473 324.587L151.441 290.988L149.559 291.662L161.59 325.261L163.473 324.587ZM149.5 291.325V324.719H151.5V291.325H149.5ZM149.5 324.719C149.5 325.398 149.279 325.927 148.836 326.37L150.25 327.784C151.083 326.951 151.5 325.908 151.5 324.719H149.5ZM148.836 326.37C148.413 326.793 147.917 327 147.287 327V329C148.435 329 149.443 328.591 150.25 327.784L148.836 326.37ZM147.287 327H141.135V329H147.287V327ZM141.135 327C140.504 327 139.99 326.792 139.539 326.357L138.151 327.797C138.976 328.592 139.988 329 141.135 329V327ZM139.552 326.37C139.109 325.927 138.888 325.398 138.888 324.719H136.888C136.888 325.908 137.305 326.951 138.138 327.784L139.552 326.37ZM262.192 279.943L261.473 280.637L261.479 280.644L261.485 280.65L262.192 279.943ZM230.166 288.659V287.659H229.166V288.659H230.166ZM230.166 298.605H229.166V299.605H230.166V298.605ZM258.057 299.562L257.337 300.257L257.349 300.27L257.363 300.282L258.057 299.562ZM258.057 307.321L257.35 306.614L258.057 307.321ZM230.166 308.244V307.244H229.166V308.244H230.166ZM230.166 318.327H229.166V319.327H230.166V318.327ZM262.056 327.077L262.75 327.797L262.756 327.791L262.763 327.784L262.056 327.077ZM218.237 327.077L217.53 327.784L217.537 327.791L217.543 327.797L218.237 327.077ZM218.28 324.719V282.165H216.28V324.719H218.28ZM218.28 282.165C218.28 281.547 218.489 281.055 218.931 280.629L217.543 279.189C216.709 279.994 216.28 281.006 216.28 282.165H218.28ZM218.931 280.629C219.383 280.194 219.897 279.986 220.527 279.986V277.986C219.381 277.986 218.368 278.394 217.543 279.189L218.931 280.629ZM220.527 279.986H259.937V277.986H220.527V279.986ZM259.937 279.986C260.554 279.986 261.046 280.196 261.473 280.637L262.912 279.249C262.108 278.415 261.096 277.986 259.937 277.986V279.986ZM261.485 280.65C261.939 281.104 262.149 281.614 262.149 282.233H264.149C264.149 281.075 263.722 280.059 262.899 279.236L261.485 280.65ZM262.149 282.233V285.446H264.149V282.233H262.149ZM262.149 285.446C262.149 286.065 261.939 286.576 261.485 287.029L262.899 288.443C263.722 287.621 264.149 286.605 264.149 285.446H262.149ZM261.485 287.029C261.062 287.452 260.566 287.659 259.937 287.659V289.659C261.084 289.659 262.092 289.251 262.899 288.443L261.485 287.029ZM259.937 287.659H230.166V289.659H259.937V287.659ZM229.166 288.659V298.605H231.166V288.659H229.166ZM230.166 299.605H255.801V297.605H230.166V299.605ZM255.801 299.605C256.419 299.605 256.911 299.815 257.337 300.257L258.776 298.868C257.972 298.034 256.96 297.605 255.801 297.605V299.605ZM257.363 300.282C257.804 300.709 258.014 301.2 258.014 301.818H260.014C260.014 300.659 259.585 299.647 258.751 298.843L257.363 300.282ZM258.014 301.818V305.031H260.014V301.818H258.014ZM258.014 305.031C258.014 305.65 257.803 306.16 257.35 306.614L258.764 308.028C259.586 307.206 260.014 306.19 260.014 305.031H258.014ZM257.35 306.614C256.926 307.037 256.431 307.244 255.801 307.244V309.244C256.948 309.244 257.957 308.836 258.764 308.028L257.35 306.614ZM255.801 307.244H230.166V309.244H255.801V307.244ZM229.166 308.244V318.327H231.166V308.244H229.166ZM230.166 319.327H259.868V317.327H230.166V319.327ZM259.868 319.327C260.467 319.327 260.954 319.528 261.383 319.957L262.797 318.543C261.995 317.741 261.001 317.327 259.868 317.327V319.327ZM261.383 319.957C261.806 320.38 262.013 320.876 262.013 321.506H264.013C264.013 320.358 263.604 319.35 262.797 318.543L261.383 319.957ZM262.013 321.506V324.787H264.013V321.506H262.013ZM262.013 324.787C262.013 325.406 261.802 325.916 261.349 326.37L262.763 327.784C263.585 326.962 264.013 325.946 264.013 324.787H262.013ZM261.362 326.357C260.91 326.792 260.396 327 259.766 327V329C260.912 329 261.925 328.592 262.75 327.797L261.362 326.357ZM259.766 327H220.527V329H259.766V327ZM220.527 327C219.897 327 219.383 326.792 218.931 326.357L217.543 327.797C218.368 328.592 219.381 329 220.527 329V327ZM218.944 326.37C218.501 325.927 218.28 325.398 218.28 324.719H216.28C216.28 325.908 216.697 326.951 217.53 327.784L218.944 326.37ZM272.405 325.129L271.439 324.873L271.431 324.903L271.425 324.933L272.405 325.129ZM281.087 292.316L282.054 292.572L282.054 292.57L281.087 292.316ZM303.748 278.986L303.748 277.986L303.746 277.986L303.748 278.986ZM322.854 279.978L322.084 280.615L322.091 280.623L322.097 280.63L322.854 279.978ZM322.786 327.077L322.066 326.383L322.066 326.384L322.786 327.077ZM311.746 327.077L311.026 327.771L311.039 327.784L311.052 327.797L311.746 327.077ZM310.823 288.659H311.823V287.659H310.823V288.659ZM296.741 290.539L297.347 291.335L297.348 291.334L296.741 290.539ZM293.46 295.529L292.495 295.267L292.494 295.271L293.46 295.529ZM285.633 324.787L284.667 324.529L284.664 324.539L284.661 324.55L285.633 324.787ZM284.095 327.111L284.691 327.914L284.698 327.909L284.706 327.903L284.095 327.111ZM272.85 327.248L272.041 327.836L272.049 327.848L272.058 327.859L272.85 327.248ZM272.303 325.983L271.305 325.917L271.303 325.95V325.983H272.303ZM273.372 325.385L282.054 292.572L280.12 292.061L271.439 324.873L273.372 325.385ZM282.054 292.57C283.153 288.381 285.465 285.279 289.002 283.198C292.571 281.098 297.46 279.998 303.75 279.986L303.746 277.986C297.253 277.998 291.973 279.13 287.988 281.474C283.972 283.836 281.345 287.388 280.12 292.063L282.054 292.57ZM303.748 279.986H320.838V277.986H303.748V279.986ZM320.838 279.986C321.313 279.986 321.711 280.164 322.084 280.615L323.625 279.34C322.904 278.469 321.958 277.986 320.838 277.986V279.986ZM322.097 280.63C322.516 281.117 322.709 281.639 322.709 282.233H324.709C324.709 281.142 324.332 280.16 323.612 279.325L322.097 280.63ZM322.709 282.233V324.787H324.709V282.233H322.709ZM322.709 324.787C322.709 325.418 322.501 325.932 322.066 326.383L323.506 327.771C324.301 326.946 324.709 325.934 324.709 324.787H322.709ZM322.066 326.384C321.67 326.794 321.194 327 320.564 327V329C321.713 329 322.717 328.59 323.506 327.771L322.066 326.384ZM320.564 327H314.036V329H320.564V327ZM314.036 327C313.406 327 312.891 326.792 312.44 326.357L311.052 327.797C311.877 328.592 312.889 329 314.036 329V327ZM312.466 326.383C312.031 325.932 311.823 325.418 311.823 324.787H309.823C309.823 325.934 310.231 326.946 311.026 327.771L312.466 326.383ZM311.823 324.787V288.659H309.823V324.787H311.823ZM310.823 287.659H302.483V289.659H310.823V287.659ZM302.483 287.659C300.09 287.659 297.96 288.35 296.134 289.744L297.348 291.334C298.804 290.222 300.501 289.659 302.483 289.659V287.659ZM296.136 289.743C294.33 291.116 293.118 292.974 292.495 295.267L294.425 295.792C294.941 293.892 295.917 292.423 297.347 291.335L296.136 289.743ZM292.494 295.271L284.667 324.529L286.599 325.046L294.426 295.788L292.494 295.271ZM284.661 324.55C284.49 325.253 284.111 325.836 283.484 326.32L284.706 327.903C285.674 327.156 286.32 326.19 286.604 325.024L284.661 324.55ZM283.498 326.309C282.852 326.789 282.214 327 281.565 327V329C282.694 329 283.742 328.619 284.691 327.914L283.498 326.309ZM281.565 327H274.627V329H281.565V327ZM274.627 327C274.051 327 273.791 326.831 273.641 326.637L272.058 327.859C272.683 328.668 273.608 329 274.627 329V327ZM273.658 326.66C273.505 326.45 273.411 326.283 273.357 326.159C273.303 326.033 273.303 325.979 273.303 325.983H271.303C271.303 326.649 271.64 327.285 272.041 327.836L273.658 326.66ZM273.301 326.05C273.322 325.733 273.352 325.495 273.386 325.325L271.425 324.933C271.368 325.218 271.329 325.55 271.305 325.917L273.301 326.05ZM385.738 322.941L386.398 323.693L386.398 323.693L385.738 322.941ZM344.723 322.941L344.063 323.693L344.065 323.695L344.723 322.941ZM385.738 284.079L385.079 284.831L385.081 284.832L385.738 284.079ZM354.054 291.291L353.292 290.643L353.289 290.647L354.054 291.291ZM354.054 315.729L353.289 316.373L353.294 316.38L354.054 315.729ZM376.407 315.729L377.17 316.377L377.172 316.373L376.407 315.729ZM385.079 322.19C380.681 326.049 374.12 328.06 365.23 328.06V330.06C374.387 330.06 381.499 327.992 386.398 323.693L385.079 322.19ZM365.23 328.06C356.365 328.06 349.802 326.049 345.38 322.188L344.065 323.695C348.985 327.991 356.095 330.06 365.23 330.06V328.06ZM345.382 322.19C341.007 318.348 338.716 312.195 338.716 303.493H336.716C336.716 312.519 339.096 319.332 344.063 323.693L345.382 322.19ZM338.716 303.493C338.716 294.79 341.007 288.651 345.38 284.832L344.065 283.326C339.096 287.665 336.716 294.468 336.716 303.493H338.716ZM345.38 284.832C349.802 280.971 356.365 278.961 365.23 278.961V276.961C356.095 276.961 348.985 279.029 344.065 283.326L345.38 284.832ZM365.23 278.961C374.12 278.961 380.681 280.972 385.079 284.831L386.398 283.327C381.499 279.029 374.387 276.961 365.23 276.961V278.961ZM385.081 284.832C389.454 288.651 391.745 294.79 391.745 303.493H393.745C393.745 294.468 391.365 287.665 386.396 283.326L385.081 284.832ZM391.745 303.493C391.745 312.195 389.454 318.348 385.078 322.19L386.398 323.693C391.365 319.332 393.745 312.519 393.745 303.493H391.745ZM377.172 290.647C374.609 287.601 370.541 286.189 365.23 286.189V288.189C370.219 288.189 373.603 289.512 375.642 291.935L377.172 290.647ZM365.23 286.189C359.94 286.189 355.877 287.602 353.292 290.643L354.816 291.939C356.879 289.511 360.267 288.189 365.23 288.189V286.189ZM353.289 290.647C350.774 293.635 349.602 297.986 349.602 303.527H351.602C351.602 298.223 352.73 294.416 354.819 291.935L353.289 290.647ZM349.602 303.527C349.602 309.048 350.775 313.387 353.289 316.373L354.819 315.086C352.73 312.604 351.602 308.808 351.602 303.527H349.602ZM353.294 316.38C355.88 319.397 359.943 320.797 365.23 320.797V318.797C360.264 318.797 356.876 317.485 354.813 315.079L353.294 316.38ZM365.23 320.797C370.539 320.797 374.605 319.398 377.17 316.377L375.645 315.082C373.606 317.484 370.222 318.797 365.23 318.797V320.797ZM377.172 316.373C379.686 313.387 380.859 309.048 380.859 303.527H378.859C378.859 308.808 377.731 312.604 375.642 315.086L377.172 316.373ZM380.859 303.527C380.859 297.986 379.687 293.635 377.172 290.647L375.642 291.935C377.731 294.416 378.859 298.223 378.859 303.527H380.859ZM405.658 279.943L404.964 279.224L404.957 279.23L404.951 279.236L405.658 279.943ZM439.052 301.955V302.955H440.052V301.955H439.052ZM450.98 279.943L450.261 280.637L450.267 280.644L450.273 280.65L450.98 279.943ZM450.946 327.077L451.64 327.797L451.641 327.797L450.946 327.077ZM440.009 327.111L439.315 327.831L439.321 327.838L439.328 327.844L440.009 327.111ZM439.052 311.628H440.052V310.628H439.052V311.628ZM405.701 293.684V282.233H403.701V293.684H405.701ZM405.701 282.233C405.701 281.614 405.912 281.104 406.365 280.65L404.951 279.236C404.129 280.059 403.701 281.075 403.701 282.233H405.701ZM406.353 280.663C406.834 280.198 407.362 279.986 407.982 279.986V277.986C406.825 277.986 405.804 278.413 404.964 279.224L406.353 280.663ZM407.982 279.986H414.374V277.986H407.982V279.986ZM414.374 279.986C414.963 279.986 415.463 280.191 415.923 280.65L417.337 279.236C416.52 278.419 415.517 277.986 414.374 277.986V279.986ZM415.923 280.65C416.376 281.104 416.587 281.614 416.587 282.233H418.587C418.587 281.075 418.159 280.059 417.337 279.236L415.923 280.65ZM416.587 282.233V293.684H418.587V282.233H416.587ZM416.587 293.684C416.587 296.594 417.312 298.96 418.938 300.593C420.564 302.226 422.923 302.955 425.824 302.955V300.955C423.234 300.955 421.474 300.306 420.355 299.182C419.235 298.057 418.587 296.288 418.587 293.684H416.587ZM425.824 302.955H439.052V300.955H425.824V302.955ZM440.052 301.955V282.233H438.052V301.955H440.052ZM440.052 282.233C440.052 281.614 440.262 281.104 440.716 280.65L439.302 279.236C438.479 280.059 438.052 281.075 438.052 282.233H440.052ZM440.716 280.65C441.17 280.197 441.68 279.986 442.299 279.986V277.986C441.14 277.986 440.124 278.414 439.302 279.236L440.716 280.65ZM442.299 279.986H448.656V277.986H442.299V279.986ZM448.656 279.986C449.335 279.986 449.845 280.206 450.261 280.637L451.7 279.249C450.886 278.404 449.846 277.986 448.656 277.986V279.986ZM450.273 280.65C450.727 281.104 450.938 281.614 450.938 282.233H452.938C452.938 281.075 452.51 280.059 451.688 279.236L450.273 280.65ZM450.938 282.233V324.787H452.938V282.233H450.938ZM450.938 324.787C450.938 325.394 450.725 325.901 450.252 326.358L451.641 327.797C452.489 326.977 452.938 325.957 452.938 324.787H450.938ZM450.252 326.357C449.801 326.792 449.287 327 448.656 327V329C449.803 329 450.815 328.592 451.64 327.797L450.252 326.357ZM448.656 327H442.299V329H448.656V327ZM442.299 327C441.657 327 441.138 326.795 440.689 326.379L439.328 327.844C440.156 328.612 441.164 329 442.299 329V327ZM440.703 326.391C440.261 325.965 440.052 325.473 440.052 324.855H438.052C438.052 326.015 438.481 327.027 439.315 327.831L440.703 326.391ZM440.052 324.855V311.628H438.052V324.855H440.052ZM439.052 310.628H425.824V312.628H439.052V310.628ZM425.824 310.628C419.5 310.628 414.602 309.181 411.023 306.395L409.795 307.974C413.827 311.113 419.206 312.628 425.824 312.628V310.628ZM411.023 306.395C407.522 303.67 405.701 299.499 405.701 293.684H403.701C403.701 299.945 405.686 304.775 409.795 307.974L411.023 306.395ZM513.659 279.943L512.939 280.637L512.946 280.644L512.952 280.65L513.659 279.943ZM481.633 288.659V287.659H480.633V288.659H481.633ZM481.633 298.605H480.633V299.605H481.633V298.605ZM509.523 299.562L508.804 300.257L508.816 300.27L508.829 300.282L509.523 299.562ZM509.523 307.321L508.816 306.614L509.523 307.321ZM481.633 308.244V307.244H480.633V308.244H481.633ZM481.633 318.327H480.633V319.327H481.633V318.327ZM513.522 327.077L514.217 327.797L514.223 327.791L514.23 327.784L513.522 327.077ZM469.704 327.077L468.997 327.784L469.003 327.791L469.01 327.797L469.704 327.077ZM469.747 324.719V282.165H467.747V324.719H469.747ZM469.747 282.165C469.747 281.547 469.956 281.055 470.398 280.629L469.01 279.189C468.176 279.994 467.747 281.006 467.747 282.165H469.747ZM470.398 280.629C470.849 280.194 471.364 279.986 471.994 279.986V277.986C470.847 277.986 469.835 278.394 469.01 279.189L470.398 280.629ZM471.994 279.986H511.403V277.986H471.994V279.986ZM511.403 279.986C512.021 279.986 512.513 280.196 512.939 280.637L514.379 279.249C513.575 278.415 512.563 277.986 511.403 277.986V279.986ZM512.952 280.65C513.406 281.104 513.616 281.614 513.616 282.233H515.616C515.616 281.075 515.189 280.059 514.366 279.236L512.952 280.65ZM513.616 282.233V285.446H515.616V282.233H513.616ZM513.616 285.446C513.616 286.065 513.406 286.576 512.952 287.029L514.366 288.443C515.189 287.621 515.616 286.605 515.616 285.446H513.616ZM512.952 287.029C512.529 287.452 512.033 287.659 511.403 287.659V289.659C512.551 289.659 513.559 289.251 514.366 288.443L512.952 287.029ZM511.403 287.659H481.633V289.659H511.403V287.659ZM480.633 288.659V298.605H482.633V288.659H480.633ZM481.633 299.605H507.268V297.605H481.633V299.605ZM507.268 299.605C507.886 299.605 508.377 299.815 508.804 300.257L510.243 298.868C509.439 298.034 508.427 297.605 507.268 297.605V299.605ZM508.829 300.282C509.271 300.709 509.48 301.2 509.48 301.818H511.48C511.48 300.659 511.052 299.647 510.218 298.843L508.829 300.282ZM509.48 301.818V305.031H511.48V301.818H509.48ZM509.48 305.031C509.48 305.65 509.27 306.16 508.816 306.614L510.231 308.028C511.053 307.206 511.48 306.19 511.48 305.031H509.48ZM508.816 306.614C508.393 307.037 507.897 307.244 507.268 307.244V309.244C508.415 309.244 509.423 308.836 510.231 308.028L508.816 306.614ZM507.268 307.244H481.633V309.244H507.268V307.244ZM480.633 308.244V318.327H482.633V308.244H480.633ZM481.633 319.327H511.335V317.327H481.633V319.327ZM511.335 319.327C511.934 319.327 512.421 319.528 512.85 319.957L514.264 318.543C513.462 317.741 512.468 317.327 511.335 317.327V319.327ZM512.85 319.957C513.273 320.38 513.479 320.876 513.479 321.506H515.479C515.479 320.358 515.071 319.35 514.264 318.543L512.85 319.957ZM513.479 321.506V324.787H515.479V321.506H513.479ZM513.479 324.787C513.479 325.406 513.269 325.916 512.815 326.37L514.23 327.784C515.052 326.962 515.479 325.946 515.479 324.787H513.479ZM512.828 326.357C512.377 326.792 511.863 327 511.232 327V329C512.379 329 513.392 328.592 514.217 327.797L512.828 326.357ZM511.232 327H471.994V329H511.232V327ZM471.994 327C471.364 327 470.849 326.792 470.398 326.357L469.01 327.797C469.835 328.592 470.847 329 471.994 329V327ZM470.411 326.37C469.968 325.927 469.747 325.398 469.747 324.719H467.747C467.747 325.908 468.164 326.951 468.997 327.784L470.411 326.37ZM539.424 279.909L538.717 280.616L538.723 280.623L538.73 280.629L539.424 279.909ZM540.381 316.379H539.381V320.155L541.25 316.874L540.381 316.379ZM559.829 282.233L558.968 281.725L558.964 281.732L558.96 281.738L559.829 282.233ZM576.816 327.077L577.511 327.797L577.517 327.791L577.524 327.784L576.816 327.077ZM566.221 327.077L565.501 327.771L565.513 327.784L565.527 327.797L566.221 327.077ZM565.298 293.068H566.298V289.251L564.426 292.578L565.298 293.068ZM547.456 324.787L548.317 325.295L548.323 325.286L548.328 325.277L547.456 324.787ZM545.234 327.077L545.775 327.918L545.782 327.914L545.789 327.909L545.234 327.077ZM528.862 327.077L528.155 327.784L528.162 327.791L528.168 327.797L528.862 327.077ZM548.413 265.007L547.482 265.372L547.487 265.385L548.413 265.007ZM557.231 265.007L556.307 264.626L556.304 264.633L556.301 264.64L557.231 265.007ZM528.905 324.787V282.233H526.905V324.787H528.905ZM528.905 282.233C528.905 281.543 529.122 281.029 529.535 280.616L528.121 279.202C527.303 280.02 526.905 281.056 526.905 282.233H528.905ZM529.535 280.616C529.948 280.203 530.462 279.986 531.152 279.986V277.986C529.975 277.986 528.939 278.385 528.121 279.202L529.535 280.616ZM531.152 279.986H537.168V277.986H531.152V279.986ZM537.168 279.986C537.798 279.986 538.293 280.193 538.717 280.616L540.131 279.202C539.324 278.395 538.316 277.986 537.168 277.986V279.986ZM538.73 280.629C539.172 281.055 539.381 281.547 539.381 282.165H541.381C541.381 281.006 540.952 279.994 540.118 279.189L538.73 280.629ZM539.381 282.165V316.379H541.381V282.165H539.381ZM541.25 316.874L560.698 282.728L558.96 281.738L539.512 315.884L541.25 316.874ZM560.69 282.741C561.136 281.985 561.752 281.325 562.556 280.763L561.409 279.124C560.39 279.838 559.57 280.704 558.968 281.725L560.69 282.741ZM562.556 280.763C563.37 280.193 564.014 279.986 564.512 279.986V277.986C563.46 277.986 562.418 278.418 561.409 279.124L562.556 280.763ZM564.512 279.986H574.595V277.986H564.512V279.986ZM574.595 279.986C575.213 279.986 575.705 280.196 576.131 280.637L577.57 279.249C576.766 278.415 575.754 277.986 574.595 277.986V279.986ZM576.131 280.637C576.566 281.089 576.773 281.603 576.773 282.233H578.773C578.773 281.087 578.366 280.074 577.57 279.249L576.131 280.637ZM576.773 282.233V324.787H578.773V282.233H576.773ZM576.773 324.787C576.773 325.406 576.563 325.916 576.109 326.37L577.524 327.784C578.346 326.962 578.773 325.946 578.773 324.787H576.773ZM576.122 326.357C575.671 326.792 575.157 327 574.526 327V329C575.673 329 576.686 328.592 577.511 327.797L576.122 326.357ZM574.526 327H568.511V329H574.526V327ZM568.511 327C567.88 327 567.366 326.792 566.915 326.357L565.527 327.797C566.352 328.592 567.364 329 568.511 329V327ZM566.941 326.383C566.506 325.932 566.298 325.418 566.298 324.787H564.298C564.298 325.934 564.705 326.946 565.501 327.771L566.941 326.383ZM566.298 324.787V293.068H564.298V324.787H566.298ZM564.426 292.578L546.584 324.297L548.328 325.277L566.169 293.559L564.426 292.578ZM546.595 324.279C546.156 325.024 545.526 325.681 544.68 326.245L545.789 327.909C546.857 327.197 547.708 326.328 548.317 325.295L546.595 324.279ZM544.694 326.236C543.853 326.776 543.116 327 542.466 327V329C543.593 329 544.702 328.608 545.775 327.918L544.694 326.236ZM542.466 327H531.152V329H542.466V327ZM531.152 327C530.522 327 530.008 326.792 529.556 326.357L528.168 327.797C528.993 328.592 530.006 329 531.152 329V327ZM529.569 326.37C529.116 325.916 528.905 325.406 528.905 324.787H526.905C526.905 325.946 527.333 326.962 528.155 327.784L529.569 326.37ZM542.372 265.007C542.372 264.6 542.478 264.473 542.522 264.433C542.58 264.379 542.762 264.264 543.252 264.264V262.264C542.489 262.264 541.731 262.439 541.162 262.966C540.579 263.507 540.372 264.251 540.372 265.007H542.372ZM543.252 264.264H546.055V262.264H543.252V264.264ZM546.055 264.264C546.431 264.264 546.69 264.358 546.887 264.504C547.092 264.655 547.304 264.918 547.482 265.372L549.344 264.642C549.066 263.934 548.657 263.325 548.076 262.895C547.487 262.46 546.795 262.264 546.055 262.264V264.264ZM547.487 265.385C547.9 266.396 548.585 267.183 549.529 267.703C550.455 268.213 551.572 268.434 552.822 268.434V266.434C551.794 266.434 551.037 266.25 550.493 265.951C549.968 265.662 549.587 265.235 549.339 264.629L547.487 265.385ZM552.822 268.434C554.082 268.434 555.205 268.213 556.133 267.703C557.08 267.182 557.761 266.391 558.162 265.374L556.301 264.64C556.064 265.241 555.691 265.663 555.168 265.951C554.626 266.249 553.864 266.434 552.822 266.434V268.434ZM558.156 265.388C558.344 264.931 558.564 264.663 558.777 264.508C558.983 264.358 559.248 264.264 559.624 264.264V262.264C558.883 262.264 558.191 262.46 557.6 262.891C557.016 263.317 556.597 263.92 556.307 264.626L558.156 265.388ZM559.624 264.264H562.427V262.264H559.624V264.264ZM562.427 264.264C562.917 264.264 563.099 264.379 563.157 264.433C563.201 264.473 563.307 264.6 563.307 265.007H565.307C565.307 264.251 565.099 263.507 564.517 262.966C563.948 262.439 563.19 262.264 562.427 262.264V264.264ZM563.307 265.007C563.307 267.879 562.355 270.061 560.506 271.669L561.818 273.178C564.162 271.141 565.307 268.378 565.307 265.007H563.307ZM560.506 271.669C558.633 273.298 556.106 274.158 552.822 274.158V276.158C556.465 276.158 559.498 275.196 561.818 273.178L560.506 271.669ZM552.822 274.158C549.563 274.158 547.047 273.299 545.173 271.669L543.86 273.178C546.179 275.195 549.2 276.158 552.822 276.158V274.158ZM545.173 271.669C543.323 270.061 542.372 267.879 542.372 265.007H540.372C540.372 268.378 541.517 271.141 543.86 273.178L545.173 271.669Z" fill="black"/>
<defs>
<filter id="filter0_d_15_210" x="143.201" y="122.536" width="409.527" height="84.9609" filterUnits="userSpaceOnUse" color-interpolation-filters="sRGB">
<feFlood flood-opacity="0" result="BackgroundImageFix"/>
<feColorMatrix in="SourceAlpha" type="matrix" values="0 0 0 0 0 0 0 0 0 0 0 0 0 0 0 0 0 0 127 0" result="hardAlpha"/>
<feOffset dx="-16"/>
<feComposite in2="hardAlpha" operator="out"/>
<feColorMatrix type="matrix" values="0 0 0 0 0 0 0 0 0 0.226013 0 0 0 0 0.433333 0 0 0 1 0"/>
<feBlend mode="normal" in2="BackgroundImageFix" result="effect1_dropShadow_15_210"/>
<feBlend mode="normal" in="SourceGraphic" in2="effect1_dropShadow_15_210" result="shape"/>
</filter>
</defs>
</svg>
